<?xml version="1.0" encoding="UTF-8" standalone="no"?><!DOCTYPE svg PUBLIC "-//W3C//DTD SVG 1.1//EN" "http://www.w3.org/Graphics/SVG/1.1/DTD/svg11.dtd"><svg width="100%" height="100%" viewBox="0 0 1920 5000" version="1.1" xmlns="http://www.w3.org/2000/svg" xmlns:xlink="http://www.w3.org/1999/xlink" xml:space="preserve" style="fill-rule:evenodd;clip-rule:evenodd;stroke-linejoin:round;stroke-miterlimit:1.41421;"><rect x="0" y="0" width="1920" height="20000" style="fill:#2f3032;"/><circle cx="77.509" cy="262.42" r="7.929" style="fill:#fff;"/><circle cx="120.159" cy="407.683" r="5.607" style="fill:#fff;fill-opacity:0.227451;"/><circle cx="637.28" cy="339.228" r="5.607" style="fill:#fff;fill-opacity:0.227451;"/><circle cx="106.618" cy="680.212" r="1.958" style="fill:#fff;"/><circle cx="354.92" cy="491.544" r="3.445" style="fill:#fff;fill-opacity:0.654902;"/><circle cx="558.96" cy="598.973" r="8.533" style="fill:#fff;"/><circle cx="284.837" cy="330.144" r="11.172" style="fill:#fff;"/><circle cx="214.656" cy="561.734" r="8.665" style="fill:#fff;"/><circle cx="471.01" cy="127.352" r="4.416" style="fill:#fff;"/><circle cx="149.267" cy="96.052" r="10.159" style="fill:#fff;"/><circle cx="370.877" cy="108.552" r="2.727" style="fill:#fff;fill-opacity:0.678431;"/><circle cx="454.308" cy="356.686" r="2.16" style="fill:#fff;fill-opacity:0.772549;"/><circle cx="696.831" cy="213.387" r="8.005" style="fill:#fff;fill-opacity:0.737255;"/><g><path d="M488.659,137.787l190.897,67.682" style="fill:#fff;"/><path d="M488.988,137.832l19.388,6.834l24.727,8.628l13.286,4.616l13.382,4.654l13.089,4.572l6.311,2.218l6.092,2.153l6.301,2.244l6.88,2.468l14.959,5.397l15.652,5.662l15.26,5.51l24.981,8.961l9.985,3.551l0.297,0.105l0.041,0.086l-0.086,0.041l-0.297,-0.105l-9.992,-3.532l-25.046,-8.776l-15.323,-5.333l-15.723,-5.462l-15.018,-5.231l-6.898,-2.417l-6.307,-2.226l-6.088,-2.165l-6.299,-2.253l-13.045,-4.694l-13.325,-4.815l-13.227,-4.784l-24.64,-8.874l-19.362,-6.905l-0.306,-0.109l-0.041,-0.086l0.086,-0.041l0.306,0.108Z" style="fill:#fff;"/></g><g><path d="M679.302,218.215l-374.558,109.369" style="fill:#fff;"/><path d="M679.367,218.196l-0.046,0.084l-0.601,0.175l-38.005,11.137l-48.395,14.267l-25.985,7.68l-26.178,7.733l-25.619,7.549l-12.367,3.63l-11.947,3.495l-12.371,3.602l-13.526,3.922l-29.433,8.502l-30.811,8.886l-30.03,8.671l-49.107,14.237l-19.599,5.712l-0.584,0.171l-0.084,-0.046l0.046,-0.083l0.584,-0.171l19.594,-5.732l49.052,-14.425l29.977,-8.851l30.751,-9.09l29.384,-8.672l13.511,-3.973l12.366,-3.62l11.95,-3.483l12.377,-3.595l25.656,-7.424l26.225,-7.568l26.036,-7.51l48.468,-14.016l38.026,-11.064l0.601,-0.176l0.084,0.046Z" style="fill:#fff;fill-opacity:0.317647;"/></g><g><path d="M95.894,270.615l169.966,56.479" style="fill:#fff;"/><path d="M96.188,270.641l17.263,5.697l22.018,7.179l11.831,3.838l11.917,3.869l11.654,3.805l5.62,1.848l5.424,1.795l5.609,1.875l6.126,2.063l13.317,4.519l13.934,4.742l13.586,4.613l22.24,7.493l8.889,2.965l0.265,0.088l0.043,0.086l-0.085,0.042l-0.265,-0.088l-8.896,-2.945l-22.302,-7.308l-13.645,-4.435l-14.001,-4.541l-13.372,-4.35l-6.143,-2.013l-5.616,-1.857l-5.42,-1.807l-5.608,-1.883l-11.613,-3.928l-11.863,-4.032l-11.775,-4.006l-21.936,-7.427l-17.238,-5.768l-0.273,-0.091l-0.043,-0.085l0.086,-0.043l0.272,0.09Z" style="fill:#fff;"/></g><g><path d="M140.233,114.901l-54.368,129.85" style="fill:#fff;"/><path d="M140.295,114.927l-0.087,0.208l-5.483,13.194l-6.909,16.841l-3.694,9.051l-3.724,9.116l-3.662,8.913l-1.779,4.296l-1.728,4.145l-1.804,4.284l-1.987,4.677l-4.35,10.16l-4.566,10.63l-4.442,10.366l-7.214,16.977l-2.854,6.789l-0.085,0.203l-0.088,0.036l-0.036,-0.088l0.085,-0.203l2.835,-6.798l7.034,-17.052l4.268,-10.438l4.37,-10.711l4.187,-10.23l1.938,-4.697l1.787,-4.291l1.74,-4.14l1.812,-4.282l3.782,-8.863l3.882,-9.05l3.857,-8.983l7.151,-16.739l5.553,-13.165l0.087,-0.208l0.088,-0.036l0.036,0.088Z" style="fill:#fff;"/></g><g><path d="M159.236,113.318l115.597,200.58" style="fill:#fff;"/><path d="M159.294,113.284l0.185,0.321l11.766,20.34l15.06,25.87l8.105,13.885l8.16,13.988l7.969,13.697l3.834,6.616l3.693,6.395l3.809,6.629l4.149,7.252l8.999,15.793l9.409,16.536l9.178,16.115l15.062,26.331l6.04,10.5l0.18,0.313l-0.025,0.092l-0.092,-0.025l-0.18,-0.313l-6.057,-10.489l-15.232,-26.234l-9.341,-16.02l-9.592,-16.431l-9.153,-15.704l-4.195,-7.226l-3.825,-6.619l-3.682,-6.402l-3.803,-6.634l-7.856,-13.762l-8.012,-14.074l-7.951,-13.973l-14.834,-26.001l-11.7,-20.377l-0.185,-0.322l0.025,-0.092l0.092,0.025Z" style="fill:#fff;fill-opacity:0.411765;"/></g><g><path d="M278.37,347.58l-54.051,198.892" style="fill:#fff;"/><path d="M278.435,347.598l-0.087,0.319l-5.449,20.197l-6.863,25.751l-3.668,13.835l-3.698,13.935l-3.637,13.631l-1.768,6.574l-1.718,6.347l-1.794,6.565l-1.976,7.171l-4.33,15.593l-4.544,16.317l-4.42,15.907l-7.177,26.036l-2.838,10.403l-0.084,0.311l-0.083,0.047l-0.047,-0.083l0.084,-0.31l2.818,-10.409l6.988,-26.087l4.239,-15.956l4.34,-16.373l4.158,-15.639l1.925,-7.185l1.776,-6.571l1.73,-6.342l1.803,-6.565l3.763,-13.597l3.863,-13.891l3.839,-13.788l7.115,-25.683l5.523,-20.176l0.087,-0.319l0.083,-0.048l0.047,0.083Z" style="fill:#fff;"/></g><g><path d="M298.217,344.202l245.764,241.964" style="fill:#fff;"/><path d="M298.658,344.542l24.971,24.531l31.87,31.193l17.128,16.74l17.252,16.865l16.868,16.516l8.13,7.979l7.845,7.714l8.109,7.997l8.851,8.752l19.234,19.061l20.122,19.959l19.621,19.45l32.135,31.775l12.851,12.666l0.383,0.378l0.001,0.095l-0.095,0.001l-0.384,-0.377l-12.865,-12.653l-32.272,-31.635l-19.753,-19.316l-20.271,-19.808l-19.358,-18.935l-8.888,-8.714l-8.123,-7.983l-7.835,-7.723l-8.105,-8.006l-16.777,-16.608l-17.132,-16.987l-17.004,-16.866l-31.686,-31.379l-24.917,-24.586l-0.394,-0.388l-0.001,-0.095l0.095,-0.001l0.394,0.388Z" style="fill:#fff;fill-opacity:0.207843;"/></g><path d="M393.951,2765.2c2.517,1.8 3.098,5.306 1.298,7.822c-1.801,2.517 -5.306,3.099 -7.823,1.298c-2.517,-1.8 -3.098,-5.305 -1.298,-7.822c1.801,-2.517 5.306,-3.099 7.823,-1.298Z" style="fill:#fff;fill-opacity:0.227451;"/><path d="M74.424,2726.56c1.546,1.106 1.904,3.26 0.798,4.806c-1.107,1.547 -3.26,1.904 -4.806,0.798c-1.547,-1.107 -1.904,-3.26 -0.798,-4.806c1.106,-1.547 3.26,-1.904 4.806,-0.798Z" style="fill:#fff;fill-opacity:0.654902;"/><path d="M180.83,2928.51c3.83,2.74 4.716,8.075 1.975,11.905c-2.74,3.831 -8.074,4.716 -11.905,1.976c-3.83,-2.74 -4.715,-8.075 -1.975,-11.905c2.74,-3.831 8.075,-4.716 11.905,-1.976Z" style="fill:#fff;"/><path d="M115.827,2548.23c5.015,3.588 6.174,10.572 2.586,15.587c-3.588,5.016 -10.572,6.174 -15.587,2.587c-5.015,-3.588 -6.174,-10.572 -2.587,-15.587c3.588,-5.015 10.572,-6.174 15.588,-2.587Z" style="fill:#fff;"/><path d="M381.302,2497.11c1.982,1.418 2.44,4.179 1.022,6.161c-1.418,1.982 -4.179,2.44 -6.161,1.022c-1.982,-1.418 -2.44,-4.178 -1.022,-6.161c1.418,-1.982 4.179,-2.44 6.161,-1.022Z" style="fill:#fff;"/><path d="M141.175,2279.78c4.56,3.263 5.614,9.613 2.352,14.174c-3.262,4.56 -9.613,5.614 -14.173,2.351c-4.561,-3.262 -5.614,-9.613 -2.352,-14.173c3.262,-4.56 9.613,-5.614 14.173,-2.352Z" style="fill:#fff;"/><path d="M309.818,2424.93c1.224,0.876 1.507,2.581 0.631,3.805c-0.876,1.224 -2.581,1.507 -3.805,0.631c-1.224,-0.876 -1.507,-2.58 -0.631,-3.805c0.876,-1.224 2.581,-1.506 3.805,-0.631Z" style="fill:#fff;fill-opacity:0.678431;"/><path d="M232.974,2675.74c0.969,0.694 1.193,2.044 0.5,3.013c-0.694,0.97 -2.044,1.194 -3.013,0.5c-0.97,-0.693 -1.194,-2.043 -0.5,-3.013c0.693,-0.969 2.043,-1.193 3.013,-0.5Z" style="fill:#fff;fill-opacity:0.772549;"/><path d="M516.997,2695.55c3.593,2.57 4.424,7.575 1.853,11.168c-2.571,3.594 -7.575,4.424 -11.169,1.854c-3.593,-2.571 -4.423,-7.576 -1.853,-11.169c2.571,-3.594 7.575,-4.424 11.169,-1.853Z" style="fill:#fff;fill-opacity:0.737255;"/><path d="M387.016,2519.45l115.88,166.113" style="fill:#fff;"/><path d="M387.071,2519.42l0.186,0.266l11.792,16.838l15.091,21.404l8.12,11.485l8.176,11.571l7.985,11.333l3.843,5.477l3.702,5.295l3.819,5.491l4.16,6.01l9.026,13.094l9.436,13.711l9.205,13.36l15.105,21.823l6.054,8.697l0.18,0.259l-0.016,0.094l-0.094,-0.017l-0.181,-0.259l-6.071,-8.685l-15.264,-21.711l-9.36,-13.252l-9.61,-13.591l-9.171,-12.992l-4.204,-5.98l-3.834,-5.48l-3.692,-5.302l-3.812,-5.498l-7.879,-11.407l-8.036,-11.669l-7.974,-11.586l-14.877,-21.554l-11.73,-16.882l-0.186,-0.266l0.017,-0.094l0.094,0.017Z" style="fill:#fff;"/><path d="M495.274,2695.79l-368.268,-128.974" style="fill:#fff;"/><path d="M127.603,2566.95l19.271,6.738l48.287,16.808l29.531,10.242l30.299,10.499l28.944,10.043l13.3,4.63l12.164,4.25l11.746,4.12l12.158,4.277l25.186,8.89l25.733,9.103l25.544,9.039l47.575,16.801l37.365,13.126l0.59,0.207l0.041,0.086l-0.085,0.041l-0.591,-0.207l-37.39,-13.054l-47.661,-16.553l-25.603,-8.873l-25.79,-8.941l-25.229,-8.767l-12.17,-4.243l-11.749,-4.108l-12.159,-4.268l-13.282,-4.68l-28.885,-10.21l-30.229,-10.699l-29.469,-10.42l-48.223,-16.992l-19.264,-6.758l-0.574,-0.201l-0.041,-0.086l0.085,-0.041l0.575,0.201Z" style="fill:#fff;fill-opacity:0.317647;"/><path d="M-9.709,2398.97l105.375,144.825" style="fill:#fff;"/><path d="M-9.654,2398.93l0.169,0.232l10.726,14.677l13.731,18.649l7.389,10.005l7.44,10.08l7.266,9.875l3.495,4.773l3.367,4.616l3.472,4.788l3.781,5.243l8.202,11.423l8.574,11.964l8.365,11.656l13.729,19.035l5.505,7.583l0.164,0.226l-0.015,0.094l-0.094,-0.015l-0.164,-0.226l-5.522,-7.571l-13.887,-18.919l-8.517,-11.546l-8.745,-11.839l-8.345,-11.319l-3.825,-5.211l-3.487,-4.777l-3.356,-4.624l-3.466,-4.794l-7.16,-9.952l-7.303,-10.181l-7.246,-10.109l-13.519,-18.803l-10.664,-14.722l-0.169,-0.232l0.015,-0.094l0.094,0.015Z" style="fill:#fff;"/><path d="M116.95,2298.12l-119.767,73.976" style="fill:#fff;"/><path d="M117.008,2298.08l-0.022,0.093l-0.192,0.119l-12.136,7.541l-15.418,9.676l-8.27,5.213l-8.333,5.247l-8.164,5.119l-3.946,2.459l-3.818,2.365l-3.96,2.435l-4.336,2.648l-9.45,5.732l-9.898,5.99l-9.643,5.845l-15.745,9.611l-6.272,3.861l-0.187,0.116l-0.093,-0.022l0.022,-0.093l0.187,-0.115l6.261,-3.88l15.642,-9.776l9.545,-6.006l9.786,-6.169l9.357,-5.884l4.309,-2.692l3.95,-2.451l3.824,-2.355l3.965,-2.428l8.232,-5.008l8.423,-5.102l8.364,-5.062l15.555,-9.454l12.176,-7.476l0.192,-0.118l0.093,0.021Z" style="fill:#fff;"/><path d="M133.327,2307.89l-22.685,230.393" style="fill:#fff;"/><path d="M133.394,2307.89l-0.037,0.369l-2.264,23.388l-2.803,29.803l-1.487,16.008l-1.502,16.125l-1.488,15.776l-0.731,7.612l-0.717,7.35l-0.759,7.607l-0.845,8.313l-1.869,18.08l-1.97,18.923l-1.91,18.447l-3.07,30.179l-1.197,12.053l-0.036,0.359l-0.073,0.061l-0.061,-0.074l0.036,-0.359l1.176,-12.055l2.875,-30.199l1.724,-18.465l1.759,-18.943l1.692,-18.098l0.793,-8.318l0.739,-7.609l0.73,-7.349l0.768,-7.608l1.617,-15.764l1.672,-16.108l1.664,-15.991l3.063,-29.777l2.34,-23.38l0.037,-0.37l0.073,-0.06l0.061,0.074Z" style="fill:#fff;fill-opacity:0.411765;"/><path d="M93.922,2567.73l-159.68,130.313" style="fill:#fff;"/><path d="M93.974,2567.69l-0.01,0.095l-0.256,0.209l-16.183,13.256l-20.564,16.951l-11.033,9.118l-11.115,9.182l-10.889,8.97l-5.263,4.319l-5.09,4.161l-5.279,4.296l-5.78,4.683l-12.593,10.163l-13.189,10.627l-12.851,10.366l-20.985,16.999l-8.361,6.81l-0.249,0.204l-0.095,-0.01l0.01,-0.095l0.249,-0.203l8.348,-6.826l20.861,-17.151l12.732,-10.512l13.055,-10.791l12.482,-10.3l5.746,-4.724l5.267,-4.31l5.098,-4.152l5.286,-4.291l10.97,-8.869l11.225,-9.05l11.144,-8.98l20.73,-16.749l16.231,-13.197l0.256,-0.208l0.095,0.009Z" style="fill:#fff;"/><path d="M112.029,2576.53l59.104,339.784" style="fill:#fff;"/><path d="M112.095,2576.52l0.095,0.545l6.036,34.48l7.772,43.912l4.191,23.581l4.219,23.754l4.11,23.246l1.97,11.221l1.892,10.837l1.942,11.223l2.107,12.267l4.553,26.694l4.753,27.941l4.642,27.234l7.649,44.54l3.082,17.779l0.092,0.53l-0.055,0.078l-0.078,-0.055l-0.092,-0.53l-3.103,-17.776l-7.841,-44.506l-4.827,-27.202l-4.961,-27.905l-4.728,-26.663l-2.159,-12.258l-1.961,-11.219l-1.88,-10.84l-1.934,-11.227l-3.982,-23.268l-4.05,-23.784l-4.017,-23.611l-7.513,-43.957l-5.962,-34.493l-0.094,-0.545l0.054,-0.078l0.078,0.055Z" style="fill:#fff;fill-opacity:0.207843;"/><path d="M1593.44,1613.33c-1.8,4.281 -6.736,6.296 -11.017,4.497c-4.281,-1.799 -6.296,-6.736 -4.497,-11.017c1.799,-4.281 6.736,-6.296 11.017,-4.496c4.281,1.799 6.296,6.735 4.497,11.016Z" style="fill:#fff;"/><path d="M1431.54,1594.37c-1.273,3.027 -4.763,4.451 -7.791,3.179c-3.027,-1.272 -4.451,-4.763 -3.179,-7.79c1.272,-3.027 4.763,-4.452 7.79,-3.18c3.027,1.273 4.452,4.763 3.18,7.791Z" style="fill:#fff;fill-opacity:0.227451;"/><path d="M1285.88,2128.37c-1.272,3.027 -4.763,4.452 -7.79,3.18c-3.027,-1.273 -4.452,-4.763 -3.18,-7.79c1.273,-3.027 4.763,-4.452 7.791,-3.18c3.027,1.273 4.451,4.763 3.179,7.79Z" style="fill:#fff;fill-opacity:0.227451;"/><path d="M1166.94,1467.57c-0.444,1.058 -1.663,1.555 -2.721,1.111c-1.057,-0.444 -1.555,-1.664 -1.11,-2.721c0.444,-1.057 1.663,-1.555 2.721,-1.111c1.057,0.445 1.555,1.664 1.11,2.721Z" style="fill:#fff;"/><path d="M1250.86,1788.65c-0.782,1.86 -2.927,2.735 -4.787,1.954c-1.859,-0.782 -2.735,-2.927 -1.953,-4.787c0.782,-1.859 2.926,-2.735 4.786,-1.953c1.86,0.782 2.735,2.926 1.954,4.786Z" style="fill:#fff;fill-opacity:0.654902;"/><path d="M1066.86,1946.16c-1.937,4.607 -7.249,6.775 -11.856,4.839c-4.607,-1.936 -6.775,-7.249 -4.839,-11.856c1.936,-4.607 7.249,-6.775 11.856,-4.839c4.607,1.937 6.775,7.249 4.839,11.856Z" style="fill:#fff;"/><path d="M1445.12,1789.63c-2.535,6.032 -9.491,8.871 -15.523,6.335c-6.032,-2.535 -8.87,-9.49 -6.335,-15.522c2.535,-6.032 9.491,-8.871 15.523,-6.336c6.032,2.535 8.87,9.491 6.335,15.523Z" style="fill:#fff;"/><path d="M1244.98,1624.73c-1.966,4.678 -7.361,6.88 -12.039,4.914c-4.678,-1.967 -6.88,-7.361 -4.914,-12.039c1.967,-4.679 7.361,-6.881 12.04,-4.914c4.678,1.966 6.88,7.361 4.913,12.039Z" style="fill:#fff;"/><path d="M1560.34,2052.35c-1.002,2.384 -3.752,3.506 -6.136,2.504c-2.384,-1.002 -3.506,-3.751 -2.504,-6.135c1.002,-2.384 3.751,-3.507 6.136,-2.504c2.384,1.002 3.506,3.751 2.504,6.135Z" style="fill:#fff;"/><path d="M1728.86,1752.84c-2.305,5.485 -8.63,8.066 -14.115,5.761c-5.485,-2.306 -8.066,-8.63 -5.761,-14.115c2.306,-5.485 8.63,-8.066 14.115,-5.761c5.485,2.305 8.066,8.63 5.761,14.115Z" style="fill:#fff;"/><path d="M1618.25,1961.43c-0.619,1.473 -2.316,2.166 -3.789,1.547c-1.472,-0.619 -2.165,-2.317 -1.546,-3.789c0.619,-1.472 2.317,-2.165 3.789,-1.546c1.472,0.619 2.165,2.316 1.546,3.788Z" style="fill:#fff;fill-opacity:0.678431;"/><path d="M1340.66,1940.79c-0.49,1.166 -1.835,1.715 -3.001,1.225c-1.166,-0.491 -1.715,-1.835 -1.225,-3.001c0.491,-1.166 1.835,-1.715 3.001,-1.225c1.166,0.49 1.715,1.835 1.225,3.001Z" style="fill:#fff;fill-opacity:0.772549;"/><path d="M1386.84,2239.35c-1.816,4.322 -6.8,6.356 -11.122,4.539c-4.322,-1.816 -6.356,-6.8 -4.54,-11.122c1.817,-4.322 6.801,-6.356 11.123,-4.54c4.322,1.817 6.356,6.801 4.539,11.123Z" style="fill:#fff;fill-opacity:0.737255;"/><path d="M1538.56,2063.51l-144.695,158.91" style="fill:#fff;"/><path d="M1538.61,2063.55l-0.232,0.255l-14.658,16.154l-18.612,20.636l-9.983,11.095l-10.058,11.174l-9.857,10.921l-4.765,5.261l-4.611,5.073l-4.786,5.242l-5.241,5.717l-11.427,12.417l-11.969,12.988l-11.66,12.666l-19.032,20.757l-7.578,8.307l-0.226,0.248l-0.095,0.004l-0.005,-0.095l0.226,-0.248l7.563,-8.321l18.887,-20.888l11.521,-12.793l11.813,-13.13l11.295,-12.537l5.203,-5.753l4.771,-5.254l4.621,-5.065l4.792,-5.237l9.953,-10.833l10.185,-11.059l10.113,-10.975l18.807,-20.46l14.714,-16.103l0.232,-0.254l0.095,-0.005l0.004,0.095Z" style="fill:#fff;"/><path d="M1381.5,2216.93l47.015,-411.367" style="fill:#fff;"/><path d="M1428.58,1805.57l-0.073,0.641l-2.45,21.524l-6.063,53.914l-3.673,32.963l-3.758,33.817l-3.604,32.309l-1.67,14.85l-1.543,13.585l-1.506,13.122l-1.571,13.586l-3.283,28.15l-3.374,28.766l-3.353,28.557l-6.209,53.176l-4.81,41.747l-0.075,0.66l-0.075,0.059l-0.059,-0.074l0.075,-0.66l4.734,-41.756l5.95,-53.206l3.176,-28.577l3.204,-28.786l3.154,-28.164l1.535,-13.59l1.493,-13.123l1.562,-13.584l1.723,-14.843l3.78,-32.289l3.969,-33.793l3.859,-32.942l6.258,-53.892l2.47,-21.521l0.073,-0.642l0.075,-0.059l0.059,0.075Z" style="fill:#fff;fill-opacity:0.317647;"/><path d="M1570.11,1624.68l-125.131,143.042" style="fill:#fff;"/><path d="M1570.16,1624.73l-0.2,0.23l-12.672,14.543l-16.081,18.582l-8.623,9.991l-8.689,10.063l-8.516,9.833l-4.12,4.737l-3.987,4.567l-4.139,4.718l-4.536,5.145l-9.892,11.172l-10.362,11.686l-10.095,11.396l-16.47,18.679l-6.554,7.477l-0.196,0.223l-0.095,0.006l-0.006,-0.095l0.195,-0.223l6.539,-7.491l16.323,-18.807l9.953,-11.52l10.203,-11.825l9.758,-11.289l4.497,-5.18l4.125,-4.73l3.996,-4.559l4.147,-4.713l8.614,-9.748l8.818,-9.95l8.756,-9.874l16.278,-18.41l12.729,-14.493l0.201,-0.229l0.095,-0.007l0.006,0.095Z" style="fill:#fff;"/><path d="M1704.2,1732.08l-104.667,-106.572" style="fill:#fff;"/><path d="M1599.58,1625.46l0.163,0.166l5.484,5.568l13.784,13.896l8.452,8.471l8.677,8.684l8.281,8.306l3.796,3.827l3.464,3.513l3.334,3.404l3.444,3.533l7.118,7.34l7.261,7.515l7.205,7.463l13.44,13.872l10.597,10.843l0.167,0.171l-0.001,0.095l-0.095,-0.001l-0.168,-0.171l-10.65,-10.79l-13.627,-13.688l-7.332,-7.339l-7.383,-7.395l-7.21,-7.249l-3.47,-3.507l-3.344,-3.395l-3.45,-3.526l-3.758,-3.865l-8.155,-8.43l-8.526,-8.832l-8.317,-8.603l-13.645,-14.033l-5.469,-5.583l-0.163,-0.166l0.001,-0.095l0.095,0.001Z" style="fill:#fff;"/><path d="M1697.94,1751.32l-243.74,30.609" style="fill:#fff;"/><path d="M1698.01,1751.31l-0.058,0.075l-0.391,0.05l-24.734,3.144l-31.5,4.088l-16.915,2.213l-17.04,2.226l-16.675,2.16l-8.049,1.029l-7.774,0.983l-8.05,1.001l-8.8,1.079l-19.149,2.315l-20.043,2.411l-19.537,2.358l-31.95,3.914l-12.754,1.591l-0.38,0.048l-0.075,-0.058l0.059,-0.076l0.38,-0.047l12.751,-1.612l31.926,-4.108l19.513,-2.545l20.017,-2.621l19.126,-2.491l8.793,-1.131l8.048,-1.02l7.776,-0.97l8.053,-0.993l16.692,-2.031l17.061,-2.056l16.937,-2.038l31.533,-3.828l24.743,-3.069l0.391,-0.049l0.075,0.058Z" style="fill:#fff;fill-opacity:0.411765;"/><path d="M1419.8,1771.54l-172.335,-134.65" style="fill:#fff;"/><path d="M1247.77,1637.05l9.023,7.037l22.642,17.567l13.862,10.711l14.228,10.982l13.586,10.503l6.236,4.838l5.696,4.439l5.494,4.301l5.681,4.462l11.756,9.267l12.003,9.487l11.913,9.42l22.203,17.514l17.468,13.696l0.276,0.216l0.011,0.094l-0.094,0.012l-0.276,-0.216l-17.515,-13.636l-22.364,-17.308l-12.022,-9.28l-12.108,-9.352l-11.836,-9.165l-5.704,-4.433l-5.501,-4.291l-5.685,-4.454l-6.204,-4.88l-13.476,-10.642l-14.097,-11.149l-13.747,-10.86l-22.522,-17.72l-9.01,-7.053l-0.269,-0.21l-0.011,-0.095l0.094,-0.012l0.269,0.21Z" style="fill:#fff;"/><path d="M1414.94,1792.34l-337.741,140.925" style="fill:#fff;"/><path d="M1415,1792.32l-0.036,0.088l-0.542,0.226l-34.264,14.338l-43.621,18.343l-23.419,9.868l-23.593,9.937l-23.093,9.706l-11.149,4.672l-10.771,4.501l-11.157,4.645l-12.199,5.062l-26.552,10.983l-27.796,11.483l-27.091,11.202l-44.293,18.376l-17.674,7.364l-0.527,0.219l-0.088,-0.036l0.036,-0.088l0.527,-0.22l17.666,-7.382l44.218,-18.557l27.018,-11.375l27.715,-11.679l26.483,-11.147l12.179,-5.11l11.15,-4.663l10.776,-4.489l11.163,-4.638l23.143,-9.586l23.658,-9.78l23.488,-9.704l43.721,-18.101l34.294,-14.269l0.542,-0.226l0.088,0.037Z" style="fill:#fff;fill-opacity:0.207843;"/><circle cx="1474.05" cy="746.57" r="639.394" style="fill:url(#_Linear1);"/><circle cx="1518.27" cy="3517.57" r="1003.74" style="fill:url(#_Linear2);"/><path d="M13.307,1457.2c124.996,-194.517 384.4,-250.958 578.917,-125.962c194.516,124.997 250.958,384.401 125.961,578.917c-124.996,194.517 -384.4,250.958 -578.917,125.962c-194.516,-124.997 -250.957,-384.401 -125.961,-578.917Z" style="fill:url(#_Linear3);"/><circle cx="77.509" cy="262.42" r="7.929" style="fill:#fff;"/><circle cx="120.159" cy="407.683" r="5.607" style="fill:#fff;fill-opacity:0.227451;"/><circle cx="637.28" cy="339.228" r="5.607" style="fill:#fff;fill-opacity:0.227451;"/><circle cx="106.618" cy="680.212" r="1.958" style="fill:#fff;"/><circle cx="354.92" cy="491.544" r="3.445" style="fill:#fff;fill-opacity:0.654902;"/><circle cx="558.96" cy="598.973" r="8.533" style="fill:#fff;"/><circle cx="284.837" cy="330.144" r="11.172" style="fill:#fff;"/><circle cx="214.656" cy="561.734" r="8.665" style="fill:#fff;"/><circle cx="471.01" cy="127.352" r="4.416" style="fill:#fff;"/><circle cx="149.267" cy="96.052" r="10.159" style="fill:#fff;"/><circle cx="370.877" cy="108.552" r="2.727" style="fill:#fff;fill-opacity:0.678431;"/><circle cx="454.308" cy="356.686" r="2.16" style="fill:#fff;fill-opacity:0.772549;"/><circle cx="696.831" cy="213.387" r="8.005" style="fill:#fff;fill-opacity:0.737255;"/><g><path d="M488.659,137.787l190.897,67.682" style="fill:#fff;"/><path d="M488.988,137.832l19.388,6.834l24.727,8.628l13.286,4.616l13.382,4.654l13.089,4.572l6.311,2.218l6.092,2.153l6.301,2.244l6.88,2.468l14.959,5.397l15.652,5.662l15.26,5.51l24.981,8.961l9.985,3.551l0.297,0.105l0.041,0.086l-0.086,0.041l-0.297,-0.105l-9.992,-3.532l-25.046,-8.776l-15.323,-5.333l-15.723,-5.462l-15.018,-5.231l-6.898,-2.417l-6.307,-2.226l-6.088,-2.165l-6.299,-2.253l-13.045,-4.694l-13.325,-4.815l-13.227,-4.784l-24.64,-8.874l-19.362,-6.905l-0.306,-0.109l-0.041,-0.086l0.086,-0.041l0.306,0.108Z" style="fill:#fff;"/></g><g><path d="M679.302,218.215l-374.558,109.369" style="fill:#fff;"/><path d="M679.367,218.196l-0.046,0.084l-0.601,0.175l-38.005,11.137l-48.395,14.267l-25.985,7.68l-26.178,7.733l-25.619,7.549l-12.367,3.63l-11.947,3.495l-12.371,3.602l-13.526,3.922l-29.433,8.502l-30.811,8.886l-30.03,8.671l-49.107,14.237l-19.599,5.712l-0.584,0.171l-0.084,-0.046l0.046,-0.083l0.584,-0.171l19.594,-5.732l49.052,-14.425l29.977,-8.851l30.751,-9.09l29.384,-8.672l13.511,-3.973l12.366,-3.62l11.95,-3.483l12.377,-3.595l25.656,-7.424l26.225,-7.568l26.036,-7.51l48.468,-14.016l38.026,-11.064l0.601,-0.176l0.084,0.046Z" style="fill:#fff;fill-opacity:0.317647;"/></g><g><path d="M95.894,270.615l169.966,56.479" style="fill:#fff;"/><path d="M96.188,270.641l17.263,5.697l22.018,7.179l11.831,3.838l11.917,3.869l11.654,3.805l5.62,1.848l5.424,1.795l5.609,1.875l6.126,2.063l13.317,4.519l13.934,4.742l13.586,4.613l22.24,7.493l8.889,2.965l0.265,0.088l0.043,0.086l-0.085,0.042l-0.265,-0.088l-8.896,-2.945l-22.302,-7.308l-13.645,-4.435l-14.001,-4.541l-13.372,-4.35l-6.143,-2.013l-5.616,-1.857l-5.42,-1.807l-5.608,-1.883l-11.613,-3.928l-11.863,-4.032l-11.775,-4.006l-21.936,-7.427l-17.238,-5.768l-0.273,-0.091l-0.043,-0.085l0.086,-0.043l0.272,0.09Z" style="fill:#fff;"/></g><g><path d="M140.233,114.901l-54.368,129.85" style="fill:#fff;"/><path d="M140.295,114.927l-0.087,0.208l-5.483,13.194l-6.909,16.841l-3.694,9.051l-3.724,9.116l-3.662,8.913l-1.779,4.296l-1.728,4.145l-1.804,4.284l-1.987,4.677l-4.35,10.16l-4.566,10.63l-4.442,10.366l-7.214,16.977l-2.854,6.789l-0.085,0.203l-0.088,0.036l-0.036,-0.088l0.085,-0.203l2.835,-6.798l7.034,-17.052l4.268,-10.438l4.37,-10.711l4.187,-10.23l1.938,-4.697l1.787,-4.291l1.74,-4.14l1.812,-4.282l3.782,-8.863l3.882,-9.05l3.857,-8.983l7.151,-16.739l5.553,-13.165l0.087,-0.208l0.088,-0.036l0.036,0.088Z" style="fill:#fff;"/></g><g><path d="M159.236,113.318l115.597,200.58" style="fill:#fff;"/><path d="M159.294,113.284l0.185,0.321l11.766,20.34l15.06,25.87l8.105,13.885l8.16,13.988l7.969,13.697l3.834,6.616l3.693,6.395l3.809,6.629l4.149,7.252l8.999,15.793l9.409,16.536l9.178,16.115l15.062,26.331l6.04,10.5l0.18,0.313l-0.025,0.092l-0.092,-0.025l-0.18,-0.313l-6.057,-10.489l-15.232,-26.234l-9.341,-16.02l-9.592,-16.431l-9.153,-15.704l-4.195,-7.226l-3.825,-6.619l-3.682,-6.402l-3.803,-6.634l-7.856,-13.762l-8.012,-14.074l-7.951,-13.973l-14.834,-26.001l-11.7,-20.377l-0.185,-0.322l0.025,-0.092l0.092,0.025Z" style="fill:#fff;fill-opacity:0.411765;"/></g><g><path d="M278.37,347.58l-54.051,198.892" style="fill:#fff;"/><path d="M278.435,347.598l-0.087,0.319l-5.449,20.197l-6.863,25.751l-3.668,13.835l-3.698,13.935l-3.637,13.631l-1.768,6.574l-1.718,6.347l-1.794,6.565l-1.976,7.171l-4.33,15.593l-4.544,16.317l-4.42,15.907l-7.177,26.036l-2.838,10.403l-0.084,0.311l-0.083,0.047l-0.047,-0.083l0.084,-0.31l2.818,-10.409l6.988,-26.087l4.239,-15.956l4.34,-16.373l4.158,-15.639l1.925,-7.185l1.776,-6.571l1.73,-6.342l1.803,-6.565l3.763,-13.597l3.863,-13.891l3.839,-13.788l7.115,-25.683l5.523,-20.176l0.087,-0.319l0.083,-0.048l0.047,0.083Z" style="fill:#fff;"/></g><g><path d="M298.217,344.202l245.764,241.964" style="fill:#fff;"/><path d="M298.658,344.542l24.971,24.531l31.87,31.193l17.128,16.74l17.252,16.865l16.868,16.516l8.13,7.979l7.845,7.714l8.109,7.997l8.851,8.752l19.234,19.061l20.122,19.959l19.621,19.45l32.135,31.775l12.851,12.666l0.383,0.378l0.001,0.095l-0.095,0.001l-0.384,-0.377l-12.865,-12.653l-32.272,-31.635l-19.753,-19.316l-20.271,-19.808l-19.358,-18.935l-8.888,-8.714l-8.123,-7.983l-7.835,-7.723l-8.105,-8.006l-16.777,-16.608l-17.132,-16.987l-17.004,-16.866l-31.686,-31.379l-24.917,-24.586l-0.394,-0.388l-0.001,-0.095l0.095,-0.001l0.394,0.388Z" style="fill:#fff;fill-opacity:0.207843;"/></g><path d="M393.951,2765.2c2.517,1.8 3.098,5.306 1.298,7.822c-1.801,2.517 -5.306,3.099 -7.823,1.298c-2.517,-1.8 -3.098,-5.305 -1.298,-7.822c1.801,-2.517 5.306,-3.099 7.823,-1.298Z" style="fill:#fff;fill-opacity:0.227451;"/><path d="M74.424,2726.56c1.546,1.106 1.904,3.26 0.798,4.806c-1.107,1.547 -3.26,1.904 -4.806,0.798c-1.547,-1.107 -1.904,-3.26 -0.798,-4.806c1.106,-1.547 3.26,-1.904 4.806,-0.798Z" style="fill:#fff;fill-opacity:0.654902;"/><path d="M180.83,2928.51c3.83,2.74 4.716,8.075 1.975,11.905c-2.74,3.831 -8.074,4.716 -11.905,1.976c-3.83,-2.74 -4.715,-8.075 -1.975,-11.905c2.74,-3.831 8.075,-4.716 11.905,-1.976Z" style="fill:#fff;"/><path d="M115.827,2548.23c5.015,3.588 6.174,10.572 2.586,15.587c-3.588,5.016 -10.572,6.174 -15.587,2.587c-5.015,-3.588 -6.174,-10.572 -2.587,-15.587c3.588,-5.015 10.572,-6.174 15.588,-2.587Z" style="fill:#fff;"/><path d="M381.302,2497.11c1.982,1.418 2.44,4.179 1.022,6.161c-1.418,1.982 -4.179,2.44 -6.161,1.022c-1.982,-1.418 -2.44,-4.178 -1.022,-6.161c1.418,-1.982 4.179,-2.44 6.161,-1.022Z" style="fill:#fff;"/><path d="M141.175,2279.78c4.56,3.263 5.614,9.613 2.352,14.174c-3.262,4.56 -9.613,5.614 -14.173,2.351c-4.561,-3.262 -5.614,-9.613 -2.352,-14.173c3.262,-4.56 9.613,-5.614 14.173,-2.352Z" style="fill:#fff;"/><path d="M309.818,2424.93c1.224,0.876 1.507,2.581 0.631,3.805c-0.876,1.224 -2.581,1.507 -3.805,0.631c-1.224,-0.876 -1.507,-2.58 -0.631,-3.805c0.876,-1.224 2.581,-1.506 3.805,-0.631Z" style="fill:#fff;fill-opacity:0.678431;"/><path d="M232.974,2675.74c0.969,0.694 1.193,2.044 0.5,3.013c-0.694,0.97 -2.044,1.194 -3.013,0.5c-0.97,-0.693 -1.194,-2.043 -0.5,-3.013c0.693,-0.969 2.043,-1.193 3.013,-0.5Z" style="fill:#fff;fill-opacity:0.772549;"/><path d="M516.997,2695.55c3.593,2.57 4.424,7.575 1.853,11.168c-2.571,3.594 -7.575,4.424 -11.169,1.854c-3.593,-2.571 -4.423,-7.576 -1.853,-11.169c2.571,-3.594 7.575,-4.424 11.169,-1.853Z" style="fill:#fff;fill-opacity:0.737255;"/><path d="M387.016,2519.45l115.88,166.113" style="fill:#fff;"/><path d="M387.071,2519.42l0.186,0.266l11.792,16.838l15.091,21.404l8.12,11.485l8.176,11.571l7.985,11.333l3.843,5.477l3.702,5.295l3.819,5.491l4.16,6.01l9.026,13.094l9.436,13.711l9.205,13.36l15.105,21.823l6.054,8.697l0.18,0.259l-0.016,0.094l-0.094,-0.017l-0.181,-0.259l-6.071,-8.685l-15.264,-21.711l-9.36,-13.252l-9.61,-13.591l-9.171,-12.992l-4.204,-5.98l-3.834,-5.48l-3.692,-5.302l-3.812,-5.498l-7.879,-11.407l-8.036,-11.669l-7.974,-11.586l-14.877,-21.554l-11.73,-16.882l-0.186,-0.266l0.017,-0.094l0.094,0.017Z" style="fill:#fff;"/><path d="M495.274,2695.79l-368.268,-128.974" style="fill:#fff;"/><path d="M127.603,2566.95l19.271,6.738l48.287,16.808l29.531,10.242l30.299,10.499l28.944,10.043l13.3,4.63l12.164,4.25l11.746,4.12l12.158,4.277l25.186,8.89l25.733,9.103l25.544,9.039l47.575,16.801l37.365,13.126l0.59,0.207l0.041,0.086l-0.085,0.041l-0.591,-0.207l-37.39,-13.054l-47.661,-16.553l-25.603,-8.873l-25.79,-8.941l-25.229,-8.767l-12.17,-4.243l-11.749,-4.108l-12.159,-4.268l-13.282,-4.68l-28.885,-10.21l-30.229,-10.699l-29.469,-10.42l-48.223,-16.992l-19.264,-6.758l-0.574,-0.201l-0.041,-0.086l0.085,-0.041l0.575,0.201Z" style="fill:#fff;fill-opacity:0.317647;"/><path d="M-9.709,2398.97l105.375,144.825" style="fill:#fff;"/><path d="M-9.654,2398.93l0.169,0.232l10.726,14.677l13.731,18.649l7.389,10.005l7.44,10.08l7.266,9.875l3.495,4.773l3.367,4.616l3.472,4.788l3.781,5.243l8.202,11.423l8.574,11.964l8.365,11.656l13.729,19.035l5.505,7.583l0.164,0.226l-0.015,0.094l-0.094,-0.015l-0.164,-0.226l-5.522,-7.571l-13.887,-18.919l-8.517,-11.546l-8.745,-11.839l-8.345,-11.319l-3.825,-5.211l-3.487,-4.777l-3.356,-4.624l-3.466,-4.794l-7.16,-9.952l-7.303,-10.181l-7.246,-10.109l-13.519,-18.803l-10.664,-14.722l-0.169,-0.232l0.015,-0.094l0.094,0.015Z" style="fill:#fff;"/><path d="M116.95,2298.12l-119.767,73.976" style="fill:#fff;"/><path d="M117.008,2298.08l-0.022,0.093l-0.192,0.119l-12.136,7.541l-15.418,9.676l-8.27,5.213l-8.333,5.247l-8.164,5.119l-3.946,2.459l-3.818,2.365l-3.96,2.435l-4.336,2.648l-9.45,5.732l-9.898,5.99l-9.643,5.845l-15.745,9.611l-6.272,3.861l-0.187,0.116l-0.093,-0.022l0.022,-0.093l0.187,-0.115l6.261,-3.88l15.642,-9.776l9.545,-6.006l9.786,-6.169l9.357,-5.884l4.309,-2.692l3.95,-2.451l3.824,-2.355l3.965,-2.428l8.232,-5.008l8.423,-5.102l8.364,-5.062l15.555,-9.454l12.176,-7.476l0.192,-0.118l0.093,0.021Z" style="fill:#fff;"/><path d="M133.327,2307.89l-22.685,230.393" style="fill:#fff;"/><path d="M133.394,2307.89l-0.037,0.369l-2.264,23.388l-2.803,29.803l-1.487,16.008l-1.502,16.125l-1.488,15.776l-0.731,7.612l-0.717,7.35l-0.759,7.607l-0.845,8.313l-1.869,18.08l-1.97,18.923l-1.91,18.447l-3.07,30.179l-1.197,12.053l-0.036,0.359l-0.073,0.061l-0.061,-0.074l0.036,-0.359l1.176,-12.055l2.875,-30.199l1.724,-18.465l1.759,-18.943l1.692,-18.098l0.793,-8.318l0.739,-7.609l0.73,-7.349l0.768,-7.608l1.617,-15.764l1.672,-16.108l1.664,-15.991l3.063,-29.777l2.34,-23.38l0.037,-0.37l0.073,-0.06l0.061,0.074Z" style="fill:#fff;fill-opacity:0.411765;"/><path d="M93.922,2567.73l-159.68,130.313" style="fill:#fff;"/><path d="M93.974,2567.69l-0.01,0.095l-0.256,0.209l-16.183,13.256l-20.564,16.951l-11.033,9.118l-11.115,9.182l-10.889,8.97l-5.263,4.319l-5.09,4.161l-5.279,4.296l-5.78,4.683l-12.593,10.163l-13.189,10.627l-12.851,10.366l-20.985,16.999l-8.361,6.81l-0.249,0.204l-0.095,-0.01l0.01,-0.095l0.249,-0.203l8.348,-6.826l20.861,-17.151l12.732,-10.512l13.055,-10.791l12.482,-10.3l5.746,-4.724l5.267,-4.31l5.098,-4.152l5.286,-4.291l10.97,-8.869l11.225,-9.05l11.144,-8.98l20.73,-16.749l16.231,-13.197l0.256,-0.208l0.095,0.009Z" style="fill:#fff;"/><path d="M112.029,2576.53l59.104,339.784" style="fill:#fff;"/><path d="M112.095,2576.52l0.095,0.545l6.036,34.48l7.772,43.912l4.191,23.581l4.219,23.754l4.11,23.246l1.97,11.221l1.892,10.837l1.942,11.223l2.107,12.267l4.553,26.694l4.753,27.941l4.642,27.234l7.649,44.54l3.082,17.779l0.092,0.53l-0.055,0.078l-0.078,-0.055l-0.092,-0.53l-3.103,-17.776l-7.841,-44.506l-4.827,-27.202l-4.961,-27.905l-4.728,-26.663l-2.159,-12.258l-1.961,-11.219l-1.88,-10.84l-1.934,-11.227l-3.982,-23.268l-4.05,-23.784l-4.017,-23.611l-7.513,-43.957l-5.962,-34.493l-0.094,-0.545l0.054,-0.078l0.078,0.055Z" style="fill:#fff;fill-opacity:0.207843;"/><path d="M1593.44,1613.33c-1.8,4.281 -6.736,6.296 -11.017,4.497c-4.281,-1.799 -6.296,-6.736 -4.497,-11.017c1.799,-4.281 6.736,-6.296 11.017,-4.496c4.281,1.799 6.296,6.735 4.497,11.016Z" style="fill:#fff;"/><path d="M1431.54,1594.37c-1.273,3.027 -4.763,4.451 -7.791,3.179c-3.027,-1.272 -4.451,-4.763 -3.179,-7.79c1.272,-3.027 4.763,-4.452 7.79,-3.18c3.027,1.273 4.452,4.763 3.18,7.791Z" style="fill:#fff;fill-opacity:0.227451;"/><path d="M1285.88,2128.37c-1.272,3.027 -4.763,4.452 -7.79,3.18c-3.027,-1.273 -4.452,-4.763 -3.18,-7.79c1.273,-3.027 4.763,-4.452 7.791,-3.18c3.027,1.273 4.451,4.763 3.179,7.79Z" style="fill:#fff;fill-opacity:0.227451;"/><path d="M1166.94,1467.57c-0.444,1.058 -1.663,1.555 -2.721,1.111c-1.057,-0.444 -1.555,-1.664 -1.11,-2.721c0.444,-1.057 1.663,-1.555 2.721,-1.111c1.057,0.445 1.555,1.664 1.11,2.721Z" style="fill:#fff;"/><path d="M1250.86,1788.65c-0.782,1.86 -2.927,2.735 -4.787,1.954c-1.859,-0.782 -2.735,-2.927 -1.953,-4.787c0.782,-1.859 2.926,-2.735 4.786,-1.953c1.86,0.782 2.735,2.926 1.954,4.786Z" style="fill:#fff;fill-opacity:0.654902;"/><path d="M1066.86,1946.16c-1.937,4.607 -7.249,6.775 -11.856,4.839c-4.607,-1.936 -6.775,-7.249 -4.839,-11.856c1.936,-4.607 7.249,-6.775 11.856,-4.839c4.607,1.937 6.775,7.249 4.839,11.856Z" style="fill:#fff;"/><path d="M1445.12,1789.63c-2.535,6.032 -9.491,8.871 -15.523,6.335c-6.032,-2.535 -8.87,-9.49 -6.335,-15.522c2.535,-6.032 9.491,-8.871 15.523,-6.336c6.032,2.535 8.87,9.491 6.335,15.523Z" style="fill:#fff;"/><path d="M1244.98,1624.73c-1.966,4.678 -7.361,6.88 -12.039,4.914c-4.678,-1.967 -6.88,-7.361 -4.914,-12.039c1.967,-4.679 7.361,-6.881 12.04,-4.914c4.678,1.966 6.88,7.361 4.913,12.039Z" style="fill:#fff;"/><path d="M1560.34,2052.35c-1.002,2.384 -3.752,3.506 -6.136,2.504c-2.384,-1.002 -3.506,-3.751 -2.504,-6.135c1.002,-2.384 3.751,-3.507 6.136,-2.504c2.384,1.002 3.506,3.751 2.504,6.135Z" style="fill:#fff;"/><path d="M1728.86,1752.84c-2.305,5.485 -8.63,8.066 -14.115,5.761c-5.485,-2.306 -8.066,-8.63 -5.761,-14.115c2.306,-5.485 8.63,-8.066 14.115,-5.761c5.485,2.305 8.066,8.63 5.761,14.115Z" style="fill:#fff;"/><path d="M1618.25,1961.43c-0.619,1.473 -2.316,2.166 -3.789,1.547c-1.472,-0.619 -2.165,-2.317 -1.546,-3.789c0.619,-1.472 2.317,-2.165 3.789,-1.546c1.472,0.619 2.165,2.316 1.546,3.788Z" style="fill:#fff;fill-opacity:0.678431;"/><path d="M1340.66,1940.79c-0.49,1.166 -1.835,1.715 -3.001,1.225c-1.166,-0.491 -1.715,-1.835 -1.225,-3.001c0.491,-1.166 1.835,-1.715 3.001,-1.225c1.166,0.49 1.715,1.835 1.225,3.001Z" style="fill:#fff;fill-opacity:0.772549;"/><path d="M1386.84,2239.35c-1.816,4.322 -6.8,6.356 -11.122,4.539c-4.322,-1.816 -6.356,-6.8 -4.54,-11.122c1.817,-4.322 6.801,-6.356 11.123,-4.54c4.322,1.817 6.356,6.801 4.539,11.123Z" style="fill:#fff;fill-opacity:0.737255;"/><path d="M1538.56,2063.51l-144.695,158.91" style="fill:#fff;"/><path d="M1538.61,2063.55l-0.232,0.255l-14.658,16.154l-18.612,20.636l-9.983,11.095l-10.058,11.174l-9.857,10.921l-4.765,5.261l-4.611,5.073l-4.786,5.242l-5.241,5.717l-11.427,12.417l-11.969,12.988l-11.66,12.666l-19.032,20.757l-7.578,8.307l-0.226,0.248l-0.095,0.004l-0.005,-0.095l0.226,-0.248l7.563,-8.321l18.887,-20.888l11.521,-12.793l11.813,-13.13l11.295,-12.537l5.203,-5.753l4.771,-5.254l4.621,-5.065l4.792,-5.237l9.953,-10.833l10.185,-11.059l10.113,-10.975l18.807,-20.46l14.714,-16.103l0.232,-0.254l0.095,-0.005l0.004,0.095Z" style="fill:#fff;"/><path d="M1381.5,2216.93l47.015,-411.367" style="fill:#fff;"/><path d="M1428.58,1805.57l-0.073,0.641l-2.45,21.524l-6.063,53.914l-3.673,32.963l-3.758,33.817l-3.604,32.309l-1.67,14.85l-1.543,13.585l-1.506,13.122l-1.571,13.586l-3.283,28.15l-3.374,28.766l-3.353,28.557l-6.209,53.176l-4.81,41.747l-0.075,0.66l-0.075,0.059l-0.059,-0.074l0.075,-0.66l4.734,-41.756l5.95,-53.206l3.176,-28.577l3.204,-28.786l3.154,-28.164l1.535,-13.59l1.493,-13.123l1.562,-13.584l1.723,-14.843l3.78,-32.289l3.969,-33.793l3.859,-32.942l6.258,-53.892l2.47,-21.521l0.073,-0.642l0.075,-0.059l0.059,0.075Z" style="fill:#fff;fill-opacity:0.317647;"/><path d="M1570.11,1624.68l-125.131,143.042" style="fill:#fff;"/><path d="M1570.16,1624.73l-0.2,0.23l-12.672,14.543l-16.081,18.582l-8.623,9.991l-8.689,10.063l-8.516,9.833l-4.12,4.737l-3.987,4.567l-4.139,4.718l-4.536,5.145l-9.892,11.172l-10.362,11.686l-10.095,11.396l-16.47,18.679l-6.554,7.477l-0.196,0.223l-0.095,0.006l-0.006,-0.095l0.195,-0.223l6.539,-7.491l16.323,-18.807l9.953,-11.52l10.203,-11.825l9.758,-11.289l4.497,-5.18l4.125,-4.73l3.996,-4.559l4.147,-4.713l8.614,-9.748l8.818,-9.95l8.756,-9.874l16.278,-18.41l12.729,-14.493l0.201,-0.229l0.095,-0.007l0.006,0.095Z" style="fill:#fff;"/><path d="M1704.2,1732.08l-104.667,-106.572" style="fill:#fff;"/><path d="M1599.58,1625.46l0.163,0.166l5.484,5.568l13.784,13.896l8.452,8.471l8.677,8.684l8.281,8.306l3.796,3.827l3.464,3.513l3.334,3.404l3.444,3.533l7.118,7.34l7.261,7.515l7.205,7.463l13.44,13.872l10.597,10.843l0.167,0.171l-0.001,0.095l-0.095,-0.001l-0.168,-0.171l-10.65,-10.79l-13.627,-13.688l-7.332,-7.339l-7.383,-7.395l-7.21,-7.249l-3.47,-3.507l-3.344,-3.395l-3.45,-3.526l-3.758,-3.865l-8.155,-8.43l-8.526,-8.832l-8.317,-8.603l-13.645,-14.033l-5.469,-5.583l-0.163,-0.166l0.001,-0.095l0.095,0.001Z" style="fill:#fff;"/><path d="M1697.94,1751.32l-243.74,30.609" style="fill:#fff;"/><path d="M1698.01,1751.31l-0.058,0.075l-0.391,0.05l-24.734,3.144l-31.5,4.088l-16.915,2.213l-17.04,2.226l-16.675,2.16l-8.049,1.029l-7.774,0.983l-8.05,1.001l-8.8,1.079l-19.149,2.315l-20.043,2.411l-19.537,2.358l-31.95,3.914l-12.754,1.591l-0.38,0.048l-0.075,-0.058l0.059,-0.076l0.38,-0.047l12.751,-1.612l31.926,-4.108l19.513,-2.545l20.017,-2.621l19.126,-2.491l8.793,-1.131l8.048,-1.02l7.776,-0.97l8.053,-0.993l16.692,-2.031l17.061,-2.056l16.937,-2.038l31.533,-3.828l24.743,-3.069l0.391,-0.049l0.075,0.058Z" style="fill:#fff;fill-opacity:0.411765;"/><path d="M1419.8,1771.54l-172.335,-134.65" style="fill:#fff;"/><path d="M1247.77,1637.05l9.023,7.037l22.642,17.567l13.862,10.711l14.228,10.982l13.586,10.503l6.236,4.838l5.696,4.439l5.494,4.301l5.681,4.462l11.756,9.267l12.003,9.487l11.913,9.42l22.203,17.514l17.468,13.696l0.276,0.216l0.011,0.094l-0.094,0.012l-0.276,-0.216l-17.515,-13.636l-22.364,-17.308l-12.022,-9.28l-12.108,-9.352l-11.836,-9.165l-5.704,-4.433l-5.501,-4.291l-5.685,-4.454l-6.204,-4.88l-13.476,-10.642l-14.097,-11.149l-13.747,-10.86l-22.522,-17.72l-9.01,-7.053l-0.269,-0.21l-0.011,-0.095l0.094,-0.012l0.269,0.21Z" style="fill:#fff;"/><path d="M1414.94,1792.34l-337.741,140.925" style="fill:#fff;"/><path d="M1415,1792.32l-0.036,0.088l-0.542,0.226l-34.264,14.338l-43.621,18.343l-23.419,9.868l-23.593,9.937l-23.093,9.706l-11.149,4.672l-10.771,4.501l-11.157,4.645l-12.199,5.062l-26.552,10.983l-27.796,11.483l-27.091,11.202l-44.293,18.376l-17.674,7.364l-0.527,0.219l-0.088,-0.036l0.036,-0.088l0.527,-0.22l17.666,-7.382l44.218,-18.557l27.018,-11.375l27.715,-11.679l26.483,-11.147l12.179,-5.11l11.15,-4.663l10.776,-4.489l11.163,-4.638l23.143,-9.586l23.658,-9.78l23.488,-9.704l43.721,-18.101l34.294,-14.269l0.542,-0.226l0.088,0.037Z" style="fill:#fff;fill-opacity:0.207843;"/><circle cx="1474.05" cy="746.57" r="639.394" style="fill:url(#_Linear4);"/><path d="M13.307,1457.2c124.996,-194.517 384.4,-250.958 578.917,-125.962c194.516,124.997 250.958,384.401 125.961,578.917c-124.996,194.517 -384.4,250.958 -578.917,125.962c-194.516,-124.997 -250.957,-384.401 -125.961,-578.917Z" style="fill:url(#_Linear5);"/><rect x="0" y="0" width="1920" height="20000" style="fill:#2f3032;fill-opacity:0.882353;"/><defs><linearGradient id="_Linear1" x1="0" y1="0" x2="1" y2="0" gradientUnits="userSpaceOnUse" gradientTransform="matrix(-1424.74,1195.39,-1195.39,-1424.74,2252.44,93.277)"><stop offset="0" style="stop-color:#ff00dc;stop-opacity:1"/><stop offset="1" style="stop-color:#ffc400;stop-opacity:1"/></linearGradient><linearGradient id="_Linear2" x1="0" y1="0" x2="1" y2="0" gradientUnits="userSpaceOnUse" gradientTransform="matrix(-1902.11,-921.419,921.419,-1902.11,2469.44,3957.36)"><stop offset="0" style="stop-color:#ff00e6;stop-opacity:1"/><stop offset="1" style="stop-color:#0af;stop-opacity:1"/></linearGradient><linearGradient id="_Linear3" x1="0" y1="0" x2="1" y2="0" gradientUnits="userSpaceOnUse" gradientTransform="matrix(154.256,1208.74,-1208.74,154.256,281.357,1023.22)"><stop offset="0" style="stop-color:#006bff;stop-opacity:1"/><stop offset="1" style="stop-color:#8fff00;stop-opacity:1"/></linearGradient><linearGradient id="_Linear4" x1="0" y1="0" x2="1" y2="0" gradientUnits="userSpaceOnUse" gradientTransform="matrix(-1424.74,1195.39,-1195.39,-1424.74,2252.44,93.277)"><stop offset="0" style="stop-color:#ff00dc;stop-opacity:1"/><stop offset="1" style="stop-color:#ffc400;stop-opacity:1"/></linearGradient><linearGradient id="_Linear5" x1="0" y1="0" x2="1" y2="0" gradientUnits="userSpaceOnUse" gradientTransform="matrix(154.256,1208.74,-1208.74,154.256,281.357,1023.22)"><stop offset="0" style="stop-color:#006bff;stop-opacity:1"/><stop offset="1" style="stop-color:#8fff00;stop-opacity:1"/></linearGradient></defs></svg>